Normalized EMG Linear Envelopes
nRows=43
nColumns=17

endheader
time	        VM	        VL	        RF	       GRA	        TA	   ADDLONG	   SEMIMEM	      BFLH	        GM	        GL	       TFL	   GLUTMAX	   GLUTMED	      PIRI	    OBTINT	        QF	
2.751	  0.061202	  0.053775	  0.071334	  0.732010	  0.570287	  0.340376	  0.322231	  0.396396	  0.336324	  0.307587	  0.389288	  0.018934	  0.073469	  0.112086	  0.100043	  0.087169	
2.7515	  0.059864	  0.052192	  0.070843	  0.732097	  0.575174	  0.340047	  0.319973	  0.395934	  0.335631	  0.306797	  0.389813	  0.019017	  0.072912	  0.110809	  0.099798	  0.086817	
2.752	  0.058559	  0.050655	  0.070396	  0.732138	  0.580042	  0.339707	  0.317727	  0.395372	  0.334888	  0.306022	  0.390313	  0.019099	  0.072347	  0.109550	  0.099555	  0.086470	
2.7525	  0.057286	  0.049164	  0.069993	  0.732132	  0.584889	  0.339355	  0.315496	  0.394713	  0.334096	  0.305263	  0.390787	  0.019183	  0.071777	  0.108310	  0.099315	  0.086129	
2.753	  0.056044	  0.047718	  0.069635	  0.732081	  0.589714	  0.338992	  0.313279	  0.393959	  0.333257	  0.304519	  0.391235	  0.019267	  0.071199	  0.107089	  0.099079	  0.085794	
2.7535	  0.054834	  0.046318	  0.069322	  0.731985	  0.594516	  0.338617	  0.311079	  0.393111	  0.332373	  0.303792	  0.391658	  0.019352	  0.070616	  0.105886	  0.098845	  0.085463	
2.754	  0.053656	  0.044963	  0.069054	  0.731843	  0.599292	  0.338229	  0.308895	  0.392171	  0.331444	  0.303080	  0.392055	  0.019437	  0.070027	  0.104702	  0.098615	  0.085136	
2.7545	  0.052508	  0.043653	  0.068831	  0.731656	  0.604043	  0.337829	  0.306728	  0.391142	  0.330474	  0.302384	  0.392428	  0.019522	  0.069433	  0.103538	  0.098389	  0.084813	
2.755	  0.051390	  0.042388	  0.068655	  0.731423	  0.608766	  0.337416	  0.304579	  0.390026	  0.329462	  0.301704	  0.392776	  0.019607	  0.068834	  0.102392	  0.098166	  0.084494	
2.7555	  0.050303	  0.041168	  0.068525	  0.731146	  0.613460	  0.336992	  0.302449	  0.388826	  0.328412	  0.301038	  0.393099	  0.019693	  0.068230	  0.101265	  0.097946	  0.084178	
2.756	  0.049246	  0.039991	  0.068441	  0.730823	  0.618123	  0.336555	  0.300338	  0.387543	  0.327323	  0.300389	  0.393399	  0.019778	  0.067622	  0.100157	  0.097730	  0.083865	
2.7565	  0.048218	  0.038859	  0.068405	  0.730456	  0.622754	  0.336108	  0.298246	  0.386179	  0.326198	  0.299754	  0.393674	  0.019863	  0.067009	  0.099068	  0.097517	  0.083554	
2.757	  0.047219	  0.037770	  0.068415	  0.730046	  0.627351	  0.335650	  0.296175	  0.384738	  0.325037	  0.299133	  0.393926	  0.019948	  0.066393	  0.097998	  0.097308	  0.083244	
2.7575	  0.046249	  0.036725	  0.068474	  0.729593	  0.631914	  0.335182	  0.294123	  0.383220	  0.323843	  0.298527	  0.394154	  0.020032	  0.065773	  0.096947	  0.097103	  0.082937	
2.758	  0.045307	  0.035723	  0.068580	  0.729097	  0.636440	  0.334705	  0.292092	  0.381629	  0.322617	  0.297935	  0.394358	  0.020116	  0.065150	  0.095914	  0.096901	  0.082631	
2.7585	  0.044394	  0.034764	  0.068735	  0.728559	  0.640927	  0.334219	  0.290081	  0.379967	  0.321359	  0.297356	  0.394539	  0.020199	  0.064524	  0.094900	  0.096703	  0.082326	
2.759	  0.043508	  0.033848	  0.068938	  0.727981	  0.645375	  0.333725	  0.288090	  0.378235	  0.320072	  0.296789	  0.394696	  0.020282	  0.063895	  0.093905	  0.096508	  0.082023	
2.7595	  0.042649	  0.032974	  0.069190	  0.727362	  0.649780	  0.333223	  0.286120	  0.376436	  0.318755	  0.296235	  0.394831	  0.020364	  0.063264	  0.092929	  0.096317	  0.081720	
2.76	  0.041817	  0.032142	  0.069491	  0.726704	  0.654141	  0.332713	  0.284171	  0.374572	  0.317411	  0.295693	  0.394942	  0.020446	  0.062631	  0.091970	  0.096129	  0.081419	
2.7605	  0.041011	  0.031352	  0.069841	  0.726007	  0.658455	  0.332197	  0.282241	  0.372646	  0.316041	  0.295161	  0.395030	  0.020526	  0.061997	  0.091031	  0.095944	  0.081118	
2.761	  0.040232	  0.030603	  0.070241	  0.725274	  0.662720	  0.331673	  0.280331	  0.370658	  0.314644	  0.294638	  0.395096	  0.020606	  0.061362	  0.090109	  0.095763	  0.080818	
2.7615	  0.039479	  0.029895	  0.070691	  0.724506	  0.666934	  0.331144	  0.278441	  0.368612	  0.313223	  0.294125	  0.395139	  0.020685	  0.060726	  0.089206	  0.095585	  0.080519	
2.762	  0.038751	  0.029228	  0.071191	  0.723704	  0.671094	  0.330608	  0.276570	  0.366509	  0.311778	  0.293620	  0.395160	  0.020764	  0.060090	  0.088321	  0.095410	  0.080220	
2.7625	  0.038048	  0.028601	  0.071741	  0.722869	  0.675198	  0.330067	  0.274717	  0.364352	  0.310310	  0.293122	  0.395161	  0.020841	  0.059454	  0.087454	  0.095239	  0.079922	
2.763	  0.037371	  0.028015	  0.072342	  0.722003	  0.679245	  0.329522	  0.272882	  0.362141	  0.308820	  0.292629	  0.395140	  0.020918	  0.058818	  0.086604	  0.095070	  0.079625	
2.7635	  0.036717	  0.027468	  0.072994	  0.721107	  0.683232	  0.328972	  0.271064	  0.359880	  0.307307	  0.292142	  0.395100	  0.020994	  0.058183	  0.085773	  0.094904	  0.079328	
2.764	  0.036089	  0.026960	  0.073696	  0.720183	  0.687158	  0.328419	  0.269263	  0.357569	  0.305774	  0.291659	  0.395040	  0.021069	  0.057550	  0.084959	  0.094741	  0.079032	
2.7645	  0.035484	  0.026492	  0.074450	  0.719230	  0.691020	  0.327863	  0.267478	  0.355211	  0.304220	  0.291179	  0.394961	  0.021143	  0.056918	  0.084162	  0.094580	  0.078736	
2.765	  0.034903	  0.026062	  0.075255	  0.718251	  0.694817	  0.327304	  0.265708	  0.352807	  0.302645	  0.290701	  0.394864	  0.021216	  0.056288	  0.083382	  0.094422	  0.078441	
2.7655	  0.034345	  0.025670	  0.076112	  0.717246	  0.698545	  0.326743	  0.263953	  0.350358	  0.301051	  0.290224	  0.394750	  0.021289	  0.055660	  0.082620	  0.094267	  0.078146	
2.766	  0.033810	  0.025317	  0.077020	  0.716217	  0.702203	  0.326181	  0.262211	  0.347867	  0.299438	  0.289748	  0.394617	  0.021360	  0.055035	  0.081873	  0.094114	  0.077853	
2.7665	  0.033297	  0.025000	  0.077980	  0.715163	  0.705787	  0.325618	  0.260484	  0.345334	  0.297805	  0.289272	  0.394468	  0.021430	  0.054413	  0.081143	  0.093964	  0.077559	
2.767	  0.032807	  0.024721	  0.078992	  0.714086	  0.709296	  0.325053	  0.258768	  0.342762	  0.296154	  0.288795	  0.394303	  0.021499	  0.053794	  0.080429	  0.093816	  0.077267	
2.7675	  0.032338	  0.024479	  0.080056	  0.712988	  0.712727	  0.324489	  0.257065	  0.340152	  0.294484	  0.288316	  0.394121	  0.021568	  0.053178	  0.079731	  0.093670	  0.076976	
2.768	  0.031892	  0.024272	  0.081172	  0.711869	  0.716076	  0.323924	  0.255374	  0.337506	  0.292797	  0.287834	  0.393922	  0.021635	  0.052567	  0.079048	  0.093526	  0.076685	
2.7685	  0.031466	  0.024102	  0.082340	  0.710731	  0.719342	  0.323361	  0.253692	  0.334826	  0.291093	  0.287348	  0.393708	  0.021701	  0.051960	  0.078380	  0.093384	  0.076396	
2.769	  0.031061	  0.023967	  0.083561	  0.709575	  0.722522	  0.322798	  0.252021	  0.332113	  0.289372	  0.286857	  0.393479	  0.021766	  0.051357	  0.077726	  0.093245	  0.076108	
2.7695	  0.030677	  0.023867	  0.084834	  0.708401	  0.725614	  0.322237	  0.250359	  0.329369	  0.287634	  0.286361	  0.393235	  0.021829	  0.050759	  0.077087	  0.093109	  0.075821	
2.77	  0.030312	  0.023801	  0.086159	  0.707211	  0.728617	  0.321678	  0.248706	  0.326597	  0.285881	  0.285857	  0.392976	  0.021892	  0.050166	  0.076461	  0.092974	  0.075537	
2.7705	  0.029968	  0.023770	  0.087537	  0.706005	  0.731528	  0.321122	  0.247060	  0.323796	  0.284112	  0.285345	  0.392704	  0.021953	  0.049578	  0.075849	  0.092843	  0.075254	
2.771	  0.029644	  0.023773	  0.088967	  0.704784	  0.734347	  0.320568	  0.245423	  0.320969	  0.282327	  0.284825	  0.392420	  0.022014	  0.048995	  0.075249	  0.092714	  0.074973	
2.7715	  0.029339	  0.023808	  0.090449	  0.703549	  0.737072	  0.320016	  0.243793	  0.318118	  0.280527	  0.284295	  0.392122	  0.022073	  0.048418	  0.074661	  0.092588	  0.074694	
2.772	  0.029053	  0.023877	  0.091984	  0.702300	  0.739702	  0.319468	  0.242169	  0.315243	  0.278712	  0.283755	  0.391813	  0.022131	  0.047846	  0.074085	  0.092464	  0.074417	
